<svg width="27" height="27" fill="none" xmlns="http://www.w3.org/2000/svg"><g clip-path="url(#clip0)"><path d="M26.402 6.67l.034.22a3.423 3.423 0 0 0-2.326-2.375l-.024-.006c-2.105-.571-10.575-.571-10.575-.571s-8.449-.012-10.575.571A3.424 3.424 0 0 0 .593 6.867l-.006.024c-.786 4.107-.792 9.042.035 13.44l-.035-.223a3.423 3.423 0 0 0 2.327 2.376l.023.006c2.103.573 10.575.573 10.575.573s8.448 0 10.575-.573a3.424 3.424 0 0 0 2.345-2.358l.005-.024c.358-1.91.563-4.108.563-6.354l-.001-.248v-.26a36.29 36.29 0 0 0-.596-6.576zM10.81 17.607V9.403l7.05 4.108-7.05 4.096z" fill="inherit"/></g><defs><clipPath id="clip0"><path fill="inherit" d="M0 0h27v27H0z"/></clipPath></defs></svg>