<svg width="27" height="27" fill="inherit" xmlns="http://www.w3.org/2000/svg"><g clip-path="url(#clip0)"><path d="M13.504 6.568a6.927 6.927 0 0 0-6.927 6.927 6.927 6.927 0 0 0 6.927 6.928 6.927 6.927 0 0 0 6.928-6.928 6.927 6.927 0 0 0-6.928-6.927zm0 11.424a4.495 4.495 0 0 1-4.496-4.497 4.496 4.496 0 1 1 8.993 0 4.494 4.494 0 0 1-4.497 4.497z"/><path d="M19.066.087c-2.484-.116-8.636-.11-11.123 0C5.76.189 3.832.717 2.278 2.27-.32 4.867.013 8.365.013 13.496c0 5.252-.292 8.67 2.265 11.227 2.607 2.605 6.156 2.265 11.226 2.265 5.202 0 6.998.003 8.837-.71 2.501-.97 4.389-3.205 4.573-7.22.117-2.486.11-8.637 0-11.123-.223-4.74-2.766-7.614-7.848-7.848zm3.932 22.918c-1.702 1.702-4.063 1.55-9.526 1.55-5.625 0-7.881.084-9.527-1.567-1.895-1.886-1.552-4.916-1.552-9.51 0-6.215-.638-10.691 5.6-11.011 1.433-.05 1.855-.067 5.463-.067l.05.033c5.996 0 10.7-.627 10.982 5.61.064 1.423.078 1.85.078 5.452 0 5.56.105 7.83-1.568 9.51z"/><path d="M20.707 7.913a1.619 1.619 0 1 0 0-3.237 1.619 1.619 0 0 0 0 3.237z"/></g><defs><clipPath id="clip0"><path d="M0 0h27v27H0z"/></clipPath></defs></svg>