<svg width="24" height="24" fill="none" xmlns="http://www.w3.org/2000/svg"><path d="M15.5 7.5L19 4m2-2l-2 2 2-2zm-9.61 9.61a5.5 5.5 0 1 1-7.778 7.778 5.5 5.5 0 0 1 7.777-7.777l.001-.001zm0 0L15.5 7.5l-4.11 4.11zM15.5 7.5l3 3L22 7l-3-3-3.5 3.5zM3 16h9" stroke="#323232" stroke-linecap="round" stroke-linejoin="round"/><path d="M8 11c1.25 1.232 1.961 2.831 2 4.5-.039 1.669-.75 3.268-2 4.5-1.25-1.232-1.961-2.831-2-4.5.039-1.669.75-3.268 2-4.5v0z" stroke="#323232" stroke-linecap="round" stroke-linejoin="round"/></svg>