<svg width="297" height="63" fill="none" xmlns="http://www.w3.org/2000/svg"><path d="M82.336 50V31.44h3.936V50h-3.936zm20.863-5.154c0 1.676-.605 2.996-1.815 3.96-1.202.966-2.878 1.448-5.027 1.448-1.98 0-3.733-.372-5.256-1.117V45.48c1.252.56 2.31.953 3.174 1.181.871.229 1.667.343 2.386.343.864 0 1.524-.165 1.98-.495.466-.33.699-.821.699-1.473a1.6 1.6 0 0 0-.305-.965c-.203-.288-.503-.563-.901-.825-.39-.262-1.19-.681-2.4-1.257-1.133-.533-1.984-1.045-2.551-1.536a5.768 5.768 0 0 1-1.359-1.714c-.338-.651-.507-1.413-.507-2.285 0-1.642.554-2.932 1.663-3.872 1.117-.94 2.657-1.41 4.62-1.41.966 0 1.884.115 2.756.344.88.228 1.798.55 2.755.965l-1.27 3.059c-.99-.406-1.811-.69-2.463-.85a7.826 7.826 0 0 0-1.904-.242c-.745 0-1.316.174-1.714.52-.398.348-.597.8-.597 1.36 0 .346.08.65.242.913.16.254.414.504.761.75.356.236 1.19.668 2.501 1.294 1.735.83 2.924 1.663 3.568 2.501.643.83.964 1.85.964 3.06zM107.864 50V31.44h3.935v15.31h7.529V50h-11.464zm27.363 0l-1.346-4.418h-6.766L125.769 50h-4.24l6.551-18.637h4.811L139.467 50h-4.24zm-2.285-7.719a3075.536 3075.536 0 0 1-2.107-6.792c-.153-.524-.263-.94-.331-1.244-.279 1.084-1.079 3.762-2.399 8.036h4.837zM159.582 50h-5.002l-8.074-14.041h-.115c.161 2.48.242 4.249.242 5.307V50h-3.517V31.44h4.964l8.061 13.9h.089c-.127-2.411-.19-4.117-.19-5.115v-8.786h3.542V50zm21.384-9.458c0 3.055-.872 5.395-2.615 7.02-1.735 1.626-4.245 2.438-7.529 2.438h-5.256V31.44h5.828c3.03 0 5.382.8 7.058 2.399 1.676 1.6 2.514 3.834 2.514 6.703zm-4.088.102c0-3.987-1.76-5.98-5.281-5.98h-2.095V46.75h1.688c3.792 0 5.688-2.035 5.688-6.106z" fill="#323232"/><path d="M197.069 44.846c0 1.676-.606 2.996-1.816 3.96-1.202.966-2.877 1.448-5.027 1.448-1.981 0-3.733-.372-5.256-1.117V45.48c1.253.56 2.31.953 3.174 1.181.871.229 1.667.343 2.386.343.864 0 1.524-.165 1.981-.495.465-.33.698-.821.698-1.473 0-.364-.101-.685-.305-.965-.203-.288-.503-.563-.901-.825-.389-.262-1.189-.681-2.399-1.257-1.134-.533-1.985-1.045-2.552-1.536a5.757 5.757 0 0 1-1.358-1.714c-.339-.651-.508-1.413-.508-2.285 0-1.642.554-2.932 1.663-3.872 1.117-.94 2.657-1.41 4.621-1.41.965 0 1.883.115 2.755.344.88.228 1.798.55 2.755.965l-1.27 3.059c-.99-.406-1.811-.69-2.463-.85a7.824 7.824 0 0 0-1.904-.242c-.745 0-1.316.174-1.714.52-.398.348-.597.8-.597 1.36 0 .346.081.65.242.913.16.254.414.504.761.75.356.236 1.189.668 2.501 1.294 1.735.83 2.924 1.663 3.568 2.501.643.83.965 1.85.965 3.06zm8.599-4.672h1.295c1.211 0 2.116-.237 2.717-.711.601-.483.901-1.18.901-2.095 0-.922-.253-1.604-.761-2.044-.5-.44-1.287-.66-2.362-.66h-1.79v5.51zm8.887-2.946c0 1.998-.626 3.526-1.879 4.584-1.244 1.058-3.017 1.586-5.319 1.586h-1.689V50h-3.935V31.44h5.929c2.251 0 3.96.486 5.128 1.46 1.177.964 1.765 2.407 1.765 4.328zM219.359 50V31.44h3.936V50h-3.936zm13.843-10.321h1.269c1.245 0 2.163-.208 2.755-.622.593-.415.889-1.067.889-1.955 0-.88-.305-1.507-.914-1.88-.601-.372-1.536-.558-2.806-.558h-1.193v5.015zm0 3.199V50h-3.936V31.44h5.409c2.522 0 4.388.46 5.598 1.383 1.211.914 1.816 2.307 1.816 4.177 0 1.092-.301 2.065-.902 2.92-.601.846-1.451 1.51-2.551 1.993 2.793 4.173 4.612 6.868 5.459 8.087h-4.368l-4.43-7.122h-2.095zM247.73 50V31.44h3.936V50h-3.936zm17.068 0h-3.935V34.715h-5.041v-3.276h14.016v3.276h-5.04V50z" fill="#00A5DD"/><path fill-rule="evenodd" clip-rule="evenodd" d="M35 0l28 14.657V63H7V14.657L35 0z" fill="#00A6DE"/><path fill-rule="evenodd" clip-rule="evenodd" d="M21.479 23.111a4.537 4.537 0 0 1-3.144-1.35A4.634 4.634 0 0 1 17 18.585a4.474 4.474 0 0 1 .343-1.742c.229-.552.566-1.05.991-1.467A4.233 4.233 0 0 1 21.478 14c.6-.007 1.194.111 1.746.348a4.335 4.335 0 0 1 1.46 1.027 4.477 4.477 0 0 1 1.33 3.209 4.398 4.398 0 0 1-.34 1.728 4.358 4.358 0 0 1-.99 1.45 4.37 4.37 0 0 1-1.464 1.01 4.331 4.331 0 0 1-1.741.34zm3.686 32.082h-7.311V26.548h7.311v28.645zm13.226-20.511c0 1.226 1.72 2.277 5.16 3.152a25.48 25.48 0 0 1 3.286.946c1.048.398 2.047.918 2.976 1.55a6.99 6.99 0 0 1 2.331 2.661 8.301 8.301 0 0 1 .854 3.84c0 2.939-1.095 5.21-3.287 6.816-2.192 1.606-4.895 2.39-8.109 2.352-5.818 0-9.785-2.269-11.902-6.806l6.35-3.618c.869 2.48 2.72 3.721 5.552 3.721 2.608 0 3.911-.82 3.911-2.46 0-1.226-1.72-2.277-5.158-3.152-1.284-.346-2.378-.687-3.288-1.034a16.63 16.63 0 0 1-2.945-1.514 6.689 6.689 0 0 1-2.408-2.584 7.846 7.846 0 0 1-.823-3.695c0-2.825 1.023-5.042 3.068-6.65 2.045-1.61 4.615-2.43 7.71-2.46a12.697 12.697 0 0 1 6.293 1.55 11.482 11.482 0 0 1 4.479 4.496l-6.248 3.447a4.696 4.696 0 0 0-1.808-2.188 4.62 4.62 0 0 0-2.727-.732 3.982 3.982 0 0 0-2.351.656 1.976 1.976 0 0 0-.678.732 2 2 0 0 0-.238.974z" fill="#fff"/></svg>