<svg width="50" height="50" fill="none" xmlns="http://www.w3.org/2000/svg"><path d="M47.5 5.833h-45a2.5 2.5 0 0 0-2.5 2.5v33.334a2.5 2.5 0 0 0 2.5 2.5h45a2.5 2.5 0 0 0 2.5-2.5V8.332a2.5 2.5 0 0 0-2.5-2.5zm.833 35.834c0 .46-.373.833-.833.833h-45a.833.833 0 0 1-.833-.833V8.333c0-.46.373-.833.833-.833h45c.46 0 .833.373.833.833v33.334z" fill="#000"/><path d="M45.906 9.17a.833.833 0 0 0-.608.192l-19.225 16.15a1.667 1.667 0 0 1-2.145 0L4.703 9.362a.834.834 0 0 0-1.072 1.276l19.225 16.15a3.329 3.329 0 0 0 4.288 0l19.225-16.15a.834.834 0 0 0-.463-1.468z" fill="#4682B4"/><path d="M16.028 26.673a.833.833 0 0 0-.804.259l-11.667 12.5a.833.833 0 1 0 1.219 1.136l11.666-12.5a.833.833 0 0 0-.414-1.395zm18.748.259a.833.833 0 1 0-1.219 1.136l11.667 12.5a.833.833 0 0 0 1.219-1.136l-11.667-12.5z" fill="#000"/></svg>