<svg width="50" height="50" fill="none" xmlns="http://www.w3.org/2000/svg"><path d="M25.163 10.957a6.4 6.4 0 0 0-6.392 6.392 6.4 6.4 0 0 0 6.392 6.392 6.4 6.4 0 0 0 6.392-6.392 6.4 6.4 0 0 0-6.392-6.392zm0 10.958a4.57 4.57 0 0 1-4.566-4.566 4.57 4.57 0 0 1 4.566-4.565 4.57 4.57 0 0 1 4.566 4.565 4.57 4.57 0 0 1-4.566 4.566z" fill="#4682B4"/><path d="M37.383 5.129A17.397 17.397 0 0 0 25.001 0 17.395 17.395 0 0 0 12.62 5.129c-6.12 6.12-6.881 17.634-1.647 24.61L25.002 50l14.007-20.232c5.255-7.005 4.495-18.52-1.626-24.639zm.145 23.571L25.001 46.791 12.454 28.672C7.707 22.342 8.387 11.944 13.91 6.42A15.58 15.58 0 0 1 25 1.826c4.19 0 8.128 1.632 11.091 4.594 5.524 5.524 6.205 15.922 1.436 22.28z" fill="#323232"/></svg>