<svg width="35" height="35" fill="none" xmlns="http://www.w3.org/2000/svg"><g clip-path="url(#clip0)" fill="#2196F3"><path d="M15.313 5.08a.73.73 0 0 0 0-1.457C6.86 3.633.01 10.483 0 18.935v4.375a8.044 8.044 0 1 0 1.47-4.613c.135-7.551 6.29-13.605 13.842-13.616zM26.98 15.29a8.012 8.012 0 0 0-6.552 3.407c.135-7.551 6.29-13.605 13.843-13.616a.73.73 0 0 0 0-1.458c-8.453.01-15.303 6.86-15.313 15.312v4.375a8.02 8.02 0 1 0 8.021-8.02z"/></g><defs><clipPath id="clip0"><path fill="#fff" d="M0 0h35v35H0z"/></clipPath></defs></svg>