<svg width="50" height="50" fill="none" xmlns="http://www.w3.org/2000/svg"><g clip-path="url(#clip0)"><path d="M37.89 0H12.11a2.249 2.249 0 0 0-2.247 2.246v45.508A2.249 2.249 0 0 0 12.11 50h25.782a2.249 2.249 0 0 0 2.246-2.246V2.246A2.249 2.249 0 0 0 37.89 0zM11.23 2.246a.88.88 0 0 1 .88-.879h25.78a.88.88 0 0 1 .88.88v3.71H11.23v-3.71zm27.54 5.078v35.352H11.23V7.324h27.54zm0 40.43a.88.88 0 0 1-.88.879H12.11a.88.88 0 0 1-.88-.88v-3.71h27.54v3.71z" fill="#323232"/><path d="M22.144 47.022h5.713a.683.683 0 1 0 0-1.368h-5.713a.684.684 0 1 0 0 1.367zm13.65-44.043h-1.611a.684.684 0 1 0 0 1.367h1.61a.684.684 0 1 0 0-1.367z" fill="#4682B4"/></g><defs><clipPath id="clip0"><path fill="#fff" d="M0 0h50v50H0z"/></clipPath></defs></svg>