<svg xmlns="http://www.w3.org/2000/svg" xmlns:xlink="http://www.w3.org/1999/xlink"><defs>
<clipPath id="clip0">
  <rect width="28" height="28" fill="inherit"/>
</clipPath>

<clipPath id="clip0">
<rect width="27" height="27" fill="inherit"/>
</clipPath>

<clipPath id="clip0">
<rect width="15" height="15" fill="inherit"/>
</clipPath>

<clipPath id="clip0">
<rect width="28" height="28" fill="white"/>
</clipPath>

<clipPath id="clip0">
<rect width="28" height="28" fill="inherit"/>
</clipPath>

<clipPath id="clip0">
<rect width="27" height="27" fill="inherit"/>
</clipPath>
</defs><symbol id="icon-arrow" viewBox="0 0 7 14">
<path d="M1 1L6 7L1 13" stroke="inherit" stroke-width="2" stroke-linecap="round" stroke-linejoin="round"/>
</symbol><symbol id="icon-facebook" viewBox="0 0 28 28">
<g clip-path="url(#clip0)">
<path d="M18.6633 4.64917H21.2194V0.197167C20.7784 0.1365 19.2618 0 17.4954 0C13.8099 0 11.2853 2.31817 11.2853 6.57883V10.5H7.21826V15.477H11.2853V28H16.2716V15.4782H20.1741L20.7936 10.5012H16.2704V7.07233C16.2716 5.63383 16.6589 4.64917 18.6633 4.64917V4.64917Z" fill="inherit"/>
</g>

</symbol><symbol id="icon-instagram" viewBox="0 0 27 27">
<g clip-path="url(#clip0)">
<path d="M13.5044 6.56763C9.67603 6.56763 6.57666 9.67038 6.57666 13.4954C6.57666 17.3238 9.67941 20.4231 13.5044 20.4231C17.3328 20.4231 20.4322 17.3204 20.4322 13.4954C20.4322 9.667 17.3294 6.56763 13.5044 6.56763V6.56763ZM13.5044 17.992C11.0193 17.992 9.00778 15.9794 9.00778 13.4954C9.00778 11.0114 11.0204 8.99875 13.5044 8.99875C15.9884 8.99875 18.001 11.0114 18.001 13.4954C18.0022 15.9794 15.9895 17.992 13.5044 17.992V17.992Z" fill="inherit"/>
<path d="M19.0663 0.086519C16.5823 -0.029356 10.4296 -0.023731 7.94339 0.086519C5.75864 0.188894 3.83152 0.716519 2.27789 2.27014C-0.318608 4.86664 0.0132674 8.3654 0.0132674 13.4965C0.0132674 18.748 -0.279233 22.1658 2.27789 24.7229C4.88452 27.3284 8.43389 26.9875 13.5043 26.9875C18.7063 26.9875 20.5018 26.9909 22.3411 26.2788C24.842 25.3079 26.7298 23.0725 26.9143 19.0574C27.0313 16.5723 27.0245 10.4208 26.9143 7.93452C26.6915 3.1949 24.1479 0.320519 19.0663 0.086519V0.086519ZM22.9981 23.005C21.296 24.7071 18.9346 24.5553 13.4716 24.5553C7.84664 24.5553 5.59102 24.6385 3.94514 22.9881C2.04952 21.1015 2.39264 18.0719 2.39264 13.4785C2.39264 7.2629 1.75477 2.78652 7.99289 2.46702C9.42614 2.41639 9.84802 2.39952 13.4559 2.39952L13.5065 2.43327C19.5016 2.43327 24.2053 1.80552 24.4876 8.04252C24.5518 9.46565 24.5664 9.89315 24.5664 13.4954C24.5653 19.0551 24.671 21.3243 22.9981 23.005V23.005Z" fill="inherit"/>
<path d="M20.7068 7.91329C21.6008 7.91329 22.3256 7.18849 22.3256 6.29441C22.3256 5.40033 21.6008 4.67554 20.7068 4.67554C19.8127 4.67554 19.0879 5.40033 19.0879 6.29441C19.0879 7.18849 19.8127 7.91329 20.7068 7.91329Z" fill="inherit"/>
</g>

</symbol><symbol id="icon-linkedin" viewBox="0 0 15 15">
<g clip-path="url(#clip0)">
<path d="M14.9963 15.0001V14.9995H15V9.49826C15 6.80701 14.4207 4.73389 11.2744 4.73389C9.76191 4.73389 8.74691 5.56389 8.33254 6.35076H8.28879V4.98514H5.30566V14.9995H8.41191V10.0408C8.41191 8.73514 8.65941 7.47264 10.2763 7.47264C11.8694 7.47264 11.8932 8.96264 11.8932 10.1245V15.0001H14.9963Z" fill="inherit"/>
<path d="M0.247559 4.98584H3.35756V15.0002H0.247559V4.98584Z" fill="inherit"/>
<path d="M1.80125 0C0.806875 0 0 0.806875 0 1.80125C0 2.79562 0.806875 3.61937 1.80125 3.61937C2.79562 3.61937 3.6025 2.79562 3.6025 1.80125C3.60187 0.806875 2.795 0 1.80125 0V0Z" fill="inherit"/>
</g>

</symbol><symbol id="icon-search" viewBox="0 0 24 24">
<path d="M11 19C15.4183 19 19 15.4183 19 11C19 6.58172 15.4183 3 11 3C6.58172 3 3 6.58172 3 11C3 15.4183 6.58172 19 11 19Z" stroke="inherit" stroke-linecap="round" stroke-linejoin="round"/>
<path d="M20.9999 20.9999L16.6499 16.6499" stroke="inherit" stroke-linecap="round" stroke-linejoin="round"/>
</symbol><symbol id="icon-share" viewBox="0 0 24 24">
<path d="M18 8C19.6569 8 21 6.65685 21 5C21 3.34315 19.6569 2 18 2C16.3431 2 15 3.34315 15 5C15 6.65685 16.3431 8 18 8Z" stroke="inherit" stroke-linecap="round" stroke-linejoin="round"/>
<path d="M6 15C7.65685 15 9 13.6569 9 12C9 10.3431 7.65685 9 6 9C4.34315 9 3 10.3431 3 12C3 13.6569 4.34315 15 6 15Z" stroke="inherit" stroke-linecap="round" stroke-linejoin="round"/>
<path d="M18 22C19.6569 22 21 20.6569 21 19C21 17.3431 19.6569 16 18 16C16.3431 16 15 17.3431 15 19C15 20.6569 16.3431 22 18 22Z" stroke="inherit" stroke-linecap="round" stroke-linejoin="round"/>
<path d="M8.58984 13.5098L15.4198 17.4898" stroke="inherit" stroke-linecap="round" stroke-linejoin="round"/>
<path d="M15.4098 6.50977L8.58984 10.4898" stroke="inherit" stroke-linecap="round" stroke-linejoin="round"/>
</symbol><symbol id="icon-telegram" viewBox="0 0 28 28">
<g clip-path="url(#clip0)">
<path d="M10.9867 17.7111L10.5235 24.2257C11.1862 24.2257 11.4732 23.9411 11.8174 23.5992L14.9242 20.6301L21.3619 25.3446C22.5425 26.0026 23.3744 25.6561 23.6929 24.2584L27.9185 4.45774L27.9197 4.45657C28.2942 2.71124 27.2885 2.02874 26.1382 2.4569L1.29987 11.9664C-0.395293 12.6244 -0.369626 13.5694 1.01171 13.9976L7.36188 15.9727L22.112 6.74324C22.8062 6.28357 23.4374 6.5379 22.9182 6.99757L10.9867 17.7111Z" fill="#F4F4F4"/>
</g>

</symbol><symbol id="icon-vk" viewBox="0 0 28 28">
<g clip-path="url(#clip0)">
<path d="M23.2342 15.1993C22.7815 14.6276 22.911 14.3733 23.2342 13.8623C23.24 13.8564 26.9768 8.69275 27.3618 6.94159L27.3642 6.94042C27.5555 6.30225 27.3642 5.83325 26.439 5.83325H23.3777C22.5983 5.83325 22.239 6.23575 22.0465 6.68609C22.0465 6.68609 20.4878 10.4171 18.2828 12.8356C17.5712 13.5344 17.2422 13.7584 16.8537 13.7584C16.6623 13.7584 16.3648 13.5344 16.3648 12.8963V6.94042C16.3648 6.17509 16.1467 5.83325 15.5015 5.83325H10.6878C10.199 5.83325 9.9085 6.19025 9.9085 6.52275C9.9085 7.24842 11.011 7.41525 11.1253 9.45692V13.8868C11.1253 14.8574 10.9492 15.0359 10.5583 15.0359C9.51766 15.0359 6.99183 11.2898 5.495 7.00225C5.19283 6.17042 4.89767 5.83442 4.1125 5.83442H1.05C0.176167 5.83442 0 6.23692 0 6.68725C0 7.48292 1.04067 11.4391 4.83933 16.6658C7.371 20.2334 10.9363 22.1666 14.1797 22.1666C16.1292 22.1666 16.3672 21.7373 16.3672 20.9988C16.3672 17.5898 16.191 17.2678 17.1675 17.2678C17.6202 17.2678 18.3995 17.4918 20.2195 19.2126C22.2997 21.2531 22.6415 22.1666 23.8058 22.1666H26.8672C27.7398 22.1666 28.182 21.7373 27.9277 20.8903C27.3455 19.1088 23.4115 15.4443 23.2342 15.1993V15.1993Z" fill="inherit"/>
</g>

</symbol><symbol id="icon-youtube" viewBox="0 0 27 27">
<g clip-path="url(#clip0)">
<path d="M26.4025 6.67014L26.4362 6.89064C26.11 5.73302 25.2291 4.83977 24.1097 4.51464L24.0861 4.50902C21.9812 3.93752 13.5111 3.93752 13.5111 3.93752C13.5111 3.93752 5.06234 3.92627 2.93609 4.50902C1.79534 4.83977 0.913343 5.73302 0.592718 6.86702L0.587093 6.89064C-0.199282 10.998 -0.204907 15.9334 0.621968 20.331L0.587093 20.1083C0.913343 21.2659 1.79422 22.1591 2.91359 22.4843L2.93722 22.4899C5.03984 23.0625 13.5122 23.0625 13.5122 23.0625C13.5122 23.0625 21.9598 23.0625 24.0872 22.4899C25.2291 22.1591 26.1111 21.2659 26.4317 20.1319L26.4373 20.1083C26.7951 18.198 26.9998 15.9998 26.9998 13.7543C26.9998 13.6721 26.9998 13.5889 26.9987 13.5056C26.9998 13.4291 26.9998 13.338 26.9998 13.2469C26.9998 11.0003 26.7951 8.80202 26.4025 6.67014V6.67014ZM10.8088 17.6074V9.40277L17.8581 13.5113L10.8088 17.6074Z" fill="inherit"/>
</g>

</symbol></svg>